<?xml version="1.0" encoding="UTF-8" standalone="no"?>
<!DOCTYPE svg PUBLIC "-//W3C//DTD SVG 1.1//EN" "http://www.w3.org/Graphics/SVG/1.1/DTD/svg11.dtd">
<svg version="1.1" xmlns="http://www.w3.org/2000/svg" xmlns:xlink="http://www.w3.org/1999/xlink" preserveAspectRatio="xMidYMid meet" viewBox="0 0 640 640" width="640" height="640"><defs><path d="M464.71 220.46L472.05 221.4L479.31 222.62L486.47 224.1L493.54 225.84L500.51 227.83L507.37 230.07L514.12 232.55L520.75 235.27L527.25 238.21L533.63 241.39L539.88 244.78L545.99 248.4L551.96 252.22L557.77 256.25L563.44 260.48L568.94 264.9L574.28 269.52L579.46 274.32L584.46 279.3L589.27 284.45L593.91 289.78L598.35 295.27L602.6 300.91L606.65 306.72L610.5 312.67L614.13 318.76L617.55 325L620.74 331.36L623.72 337.86L626.46 344.48L628.96 351.21L631.22 358.06L633.24 365.01L635 372.07L636.51 379.23L637.75 386.48L638.73 393.81L639.43 401.22L639.86 408.72L640 416.28L639.84 424.39L639.35 432.42L638.54 440.35L637.42 448.2L635.99 455.94L634.26 463.57L632.24 471.09L629.94 478.49L627.35 485.76L624.49 492.9L621.36 499.9L617.97 506.75L614.33 513.45L610.44 519.99L606.3 526.37L601.93 532.57L597.34 538.59L592.51 544.43L587.47 550.08L582.23 555.54L576.77 560.79L571.12 565.82L565.28 570.65L559.26 575.25L553.05 579.62L546.68 583.75L540.14 587.64L533.44 591.29L526.59 594.68L519.59 597.8L512.45 600.66L505.18 603.25L497.78 605.56L490.26 607.57L482.63 609.3L474.89 610.73L467.04 611.85L459.1 612.66L451.08 613.15L442.97 613.31L439.61 613.28L436.26 613.2L432.92 613.06L429.58 612.86L426.25 612.6L422.93 612.29L419.62 611.92L416.32 611.5L413.03 611.03L409.76 610.49L406.49 609.91L403.24 609.27L400 608.57L396.77 607.82L393.56 607.02L390.36 606.16L387.18 605.25L384.02 604.29L380.88 603.27L377.75 602.21L374.64 601.09L371.55 599.91L368.48 598.69L365.43 597.42L362.4 596.09L359.4 594.71L356.41 593.28L353.45 591.81L350.52 590.28L347.61 588.7L344.72 587.07L341.86 585.39L339.03 583.67L336.22 581.89L333.45 580.07L330.7 578.19L327.98 576.27L325.29 574.3L322.63 572.29L320 570.22L317.37 572.29L314.71 574.3L312.02 576.27L309.3 578.19L306.55 580.07L303.78 581.89L300.97 583.67L298.14 585.39L295.28 587.07L292.39 588.7L289.48 590.28L286.55 591.81L283.59 593.28L280.6 594.71L277.6 596.09L274.57 597.42L271.52 598.69L268.45 599.91L265.36 601.09L262.25 602.21L259.12 603.27L255.98 604.29L252.82 605.25L249.64 606.16L246.44 607.02L243.23 607.82L240 608.57L236.76 609.27L233.51 609.91L230.24 610.49L226.97 611.03L223.68 611.5L220.38 611.92L217.07 612.29L213.75 612.6L210.42 612.86L207.08 613.06L203.74 613.2L200.39 613.28L197.03 613.31L188.92 613.15L180.9 612.66L172.96 611.85L165.11 610.73L157.37 609.3L149.74 607.57L142.22 605.56L134.82 603.25L127.55 600.66L120.41 597.8L113.41 594.68L106.56 591.29L99.86 587.64L93.32 583.75L86.95 579.62L80.74 575.25L74.72 570.65L68.88 565.82L63.23 560.79L57.77 555.54L52.53 550.08L47.49 544.43L42.66 538.59L38.07 532.57L33.7 526.37L29.56 519.99L25.67 513.45L22.03 506.75L18.64 499.9L15.51 492.9L12.65 485.76L10.06 478.49L7.76 471.09L5.74 463.57L4.01 455.94L2.58 448.2L1.46 440.35L0.65 432.42L0.16 424.39L0 416.28L0.14 408.72L0.57 401.22L1.27 393.81L2.25 386.48L3.49 379.23L5 372.07L6.76 365.01L8.78 358.06L11.04 351.21L13.54 344.48L16.28 337.86L19.26 331.36L22.45 325L25.87 318.76L29.5 312.67L33.35 306.72L37.4 300.91L41.65 295.27L46.09 289.78L50.73 284.45L55.55 279.3L60.54 274.32L65.72 269.52L71.06 264.9L76.56 260.48L82.23 256.25L88.05 252.22L94.01 248.4L100.12 244.78L106.37 241.39L112.75 238.21L119.26 235.27L125.89 232.55L132.63 230.07L139.49 227.83L146.46 225.84L153.53 224.1L160.69 222.62L167.95 221.4L175.29 220.46L175.2 220.28L175.29 220.12L175.55 219.97L175.96 219.83L176.52 219.7L177.23 219.59L178.06 219.49L179.02 219.39L180.09 219.31L181.26 219.24L182.53 219.18L183.88 219.13L185.31 219.08L186.8 219.05L188.36 219.03L189.95 219.01L191.59 219L193.26 219L194.95 219.01L196.65 219.03L198.35 219.05L200.04 219.08L201.72 219.12L203.37 219.16L204.99 219.21L206.56 219.26L208.08 219.32L209.54 219.38L210.92 219.45L212.23 219.53L213.44 219.61L214.55 219.69L215.56 219.77L216.45 219.86L217.21 219.96L217.83 220.05L218.31 220.15L218.63 220.25L218.79 220.35L218.78 220.46L221.54 220.78L224.3 221.15L227.06 221.55L229.8 221.99L232.54 222.48L235.26 222.99L237.98 223.55L240.69 224.15L243.39 224.78L246.08 225.45L248.76 226.16L251.42 226.9L254.08 227.69L256.72 228.51L259.35 229.36L261.97 230.26L264.58 231.19L267.17 232.15L269.75 233.16L272.31 234.19L274.86 235.27L277.39 236.38L279.91 237.53L282.42 238.71L284.9 239.93L287.37 241.18L289.83 242.47L292.26 243.79L294.68 245.15L297.08 246.54L299.46 247.97L301.83 249.43L304.17 250.92L306.49 252.45L308.8 254.02L311.08 255.61L313.34 257.24L315.58 258.91L317.8 260.61L320 262.34L322.2 260.61L324.42 258.91L326.66 257.24L328.92 255.61L331.21 254.02L333.51 252.45L335.84 250.92L338.18 249.43L340.54 247.97L342.92 246.54L345.32 245.15L347.74 243.79L350.18 242.47L352.63 241.18L355.1 239.93L357.59 238.71L360.09 237.53L362.61 236.38L365.15 235.27L367.69 234.19L370.26 233.16L372.84 232.15L375.43 231.19L378.03 230.26L380.65 229.36L383.28 228.51L385.93 227.69L388.58 226.9L391.25 226.16L393.93 225.45L396.61 224.78L399.31 224.15L402.02 223.55L404.74 222.99L407.47 222.48L410.2 221.99L412.95 221.55L415.7 221.15L418.46 220.78L421.23 220.46L383.14 182.37L410.28 150.79L475.66 150.79L502.8 182.37L464.71 220.46ZM437.07 238.36L434.14 238.48L431.2 238.65L428.28 238.87L425.36 239.13L422.45 239.45L419.55 239.81L416.66 240.21L413.77 240.67L410.9 241.17L408.04 241.72L405.19 242.31L402.35 242.95L399.52 243.64L396.71 244.37L393.91 245.15L391.12 245.97L388.35 246.84L385.6 247.75L382.85 248.71L380.13 249.71L377.42 250.76L374.73 251.85L372.06 252.98L369.4 254.16L366.77 255.38L364.15 256.65L361.56 257.96L358.98 259.31L356.43 260.7L353.9 262.14L351.39 263.62L348.9 265.14L346.43 266.7L343.99 268.3L341.58 269.95L339.19 271.63L336.82 273.36L334.49 275.13L334.51 275.15L334.53 275.18L334.56 275.2L334.58 275.22L334.61 275.25L334.63 275.27L334.66 275.3L334.68 275.32L334.71 275.35L334.73 275.37L334.75 275.4L334.78 275.42L334.83 275.47L334.85 275.49L334.88 275.52L334.9 275.54L334.92 275.57L334.95 275.59L335.09 275.74L335.14 275.79L335.19 275.84L335.22 275.86L335.24 275.89L335.26 275.91L335.29 275.94L335.31 275.96L335.34 275.98L335.36 276.01L335.39 276.03L335.41 276.06L335.44 276.08L335.61 276.25L335.68 276.33L335.76 276.4L335.83 276.48L335.91 276.55L335.98 276.62L336.06 276.7L336.13 276.77L336.21 276.85L336.28 276.92L336.35 276.99L336.43 277.07L336.5 277.14L336.58 277.22L336.65 277.29L336.73 277.36L336.8 277.44L336.88 277.51L336.95 277.59L337.02 277.66L337.1 277.74L337.17 277.81L337.25 277.88L337.32 277.96L337.4 278.03L337.47 278.11L337.54 278.18L337.62 278.26L337.69 278.33L337.76 278.41L337.84 278.48L337.91 278.56L337.99 278.63L338.06 278.71L338.13 278.78L338.21 278.86L338.28 278.93L338.35 279.01L338.43 279.08L338.46 279.12L338.5 279.16L338.54 279.2L338.57 279.24L338.61 279.27L338.64 279.31L338.68 279.35L338.72 279.39L338.75 279.43L338.79 279.46L338.83 279.5L338.86 279.54L338.9 279.58L338.93 279.62L338.97 279.65L339.01 279.69L339.04 279.73L339.08 279.77L339.11 279.81L339.19 279.88L339.22 279.92L339.26 279.96L339.4 280.11L339.47 280.19L339.54 280.27L339.58 280.3L339.62 280.34L339.65 280.38L339.69 280.42L339.72 280.46L339.76 280.5L339.8 280.53L339.83 280.57L339.87 280.61L339.93 280.67L339.99 280.74L340.11 280.87L340.23 281L340.36 281.13L340.42 281.19L340.48 281.25L340.54 281.32L340.6 281.38L340.66 281.45L340.73 281.51L340.79 281.58L340.85 281.64L340.91 281.71L340.97 281.77L341.03 281.84L341.09 281.9L341.15 281.97L341.21 282.03L341.28 282.1L341.34 282.16L341.4 282.22L341.46 282.29L341.52 282.35L341.58 282.42L341.64 282.48L341.7 282.55L341.76 282.61L341.82 282.68L341.88 282.75L341.94 282.81L342 282.88L342.06 282.94L342.13 283.01L342.19 283.07L342.25 283.14L342.31 283.2L342.35 283.25L342.39 283.29L342.42 283.33L342.46 283.38L342.5 283.42L342.54 283.46L342.58 283.51L342.62 283.55L342.66 283.59L342.7 283.64L342.74 283.68L342.78 283.72L342.82 283.77L342.85 283.81L342.89 283.85L342.93 283.9L342.97 283.94L343.01 283.99L343.05 284.03L343.09 284.07L343.16 284.16L343.24 284.25L343.36 284.38L343.44 284.47L343.51 284.55L343.55 284.6L343.59 284.64L343.63 284.68L343.67 284.73L343.71 284.77L343.75 284.82L343.79 284.86L343.82 284.9L343.86 284.95L343.97 285.07L344.2 285.32L344.31 285.44L344.36 285.5L344.42 285.56L344.47 285.63L344.53 285.69L344.58 285.75L344.64 285.81L344.69 285.87L344.75 285.94L344.81 286L344.86 286.06L344.92 286.12L344.97 286.18L345.03 286.25L345.08 286.31L345.14 286.37L345.19 286.43L345.25 286.5L345.3 286.56L345.36 286.62L345.41 286.68L345.47 286.74L345.52 286.81L345.58 286.87L345.63 286.93L345.69 286.99L345.74 287.06L345.8 287.12L345.85 287.18L345.91 287.24L345.96 287.31L346.01 287.37L346.07 287.43L346.11 287.48L346.15 287.53L346.19 287.57L346.23 287.62L346.27 287.67L346.31 287.71L346.35 287.76L346.39 287.81L346.43 287.85L346.47 287.9L346.51 287.95L346.55 287.99L346.59 288.04L346.63 288.09L346.67 288.14L346.71 288.18L346.75 288.23L346.79 288.28L346.83 288.32L346.87 288.37L346.91 288.42L346.95 288.47L346.99 288.51L347.03 288.56L347.11 288.66L347.26 288.85L347.3 288.89L347.34 288.94L347.38 288.99L347.42 289.03L347.46 289.08L347.5 289.13L347.54 289.18L347.58 289.22L347.62 289.27L347.66 289.32L347.71 289.38L347.76 289.44L347.87 289.56L348.07 289.81L348.12 289.87L348.18 289.93L348.23 289.99L348.28 290.05L348.33 290.11L348.38 290.17L348.43 290.23L348.48 290.29L348.54 290.35L348.59 290.42L348.64 290.48L348.69 290.54L348.74 290.6L348.79 290.66L348.84 290.72L348.9 290.78L348.95 290.84L349 290.91L349.05 290.97L349.1 291.03L349.15 291.09L349.2 291.15L349.25 291.21L349.3 291.27L349.35 291.34L349.41 291.4L349.46 291.46L349.51 291.52L349.56 291.58L349.61 291.64L349.66 291.71L349.71 291.77L349.72 291.78L349.73 291.79L349.74 291.8L349.75 291.82L349.77 291.84L349.79 291.87L349.82 291.9L349.83 291.91L349.84 291.92L349.85 291.94L349.9 292L349.93 292.03L349.95 292.06L349.98 292.09L350 292.11L350.01 292.13L350.02 292.14L350.03 292.15L350.04 292.16L350.05 292.17L350.05 292.18L350.07 292.2L352.09 290.72L354.12 289.27L356.18 287.86L358.26 286.48L360.36 285.13L362.47 283.82L364.61 282.54L366.77 281.3L368.94 280.1L371.14 278.93L373.35 277.8L375.57 276.7L377.82 275.64L380.08 274.61L382.35 273.63L384.64 272.68L386.95 271.76L389.27 270.88L391.6 270.04L393.95 269.24L396.31 268.47L398.68 267.75L401.06 267.06L403.46 266.4L405.87 265.79L408.28 265.21L410.71 264.68L413.15 264.18L415.59 263.72L418.05 263.3L420.51 262.92L422.98 262.58L425.46 262.27L427.94 262.01L430.43 261.79L432.93 261.61L435.43 261.46L437.94 261.36L440.45 261.3L442.97 261.28L449.35 261.41L455.66 261.79L461.91 262.43L468.08 263.31L474.17 264.43L480.17 265.79L486.09 267.38L491.91 269.2L497.63 271.23L503.24 273.48L508.75 275.94L514.14 278.61L519.41 281.47L524.55 284.54L529.57 287.79L534.45 291.23L539.19 294.84L543.78 298.64L548.23 302.6L552.52 306.73L556.65 311.02L560.61 315.46L564.41 320.06L568.02 324.8L571.46 329.68L574.71 334.69L577.78 339.84L580.64 345.11L583.31 350.5L585.77 356.01L588.02 361.62L590.05 367.34L591.87 373.16L593.46 379.08L594.81 385.08L595.94 391.17L596.82 397.34L597.45 403.59L597.84 409.9L597.97 416.28L597.84 422.66L597.45 428.98L596.82 435.22L595.94 441.39L594.81 447.48L593.46 453.49L591.87 459.4L590.05 465.22L588.02 470.94L585.77 476.56L583.31 482.06L580.64 487.45L577.78 492.72L574.71 497.87L571.46 502.88L568.02 507.76L564.4 512.5L560.61 517.1L556.65 521.54L552.52 525.83L548.23 529.96L543.78 533.93L539.19 537.72L534.45 541.34L529.57 544.77L524.55 548.03L519.41 551.09L514.14 553.96L508.75 556.62L503.24 559.08L497.63 561.33L491.91 563.37L486.09 565.18L480.17 566.77L474.17 568.13L468.08 569.25L461.91 570.13L455.66 570.77L449.35 571.15L442.97 571.28L440.46 571.26L437.95 571.2L435.45 571.1L432.95 570.96L430.46 570.78L427.98 570.56L425.5 570.29L423.03 569.99L420.56 569.65L418.11 569.27L415.66 568.86L413.22 568.4L410.79 567.9L408.37 567.37L405.96 566.8L403.56 566.18L401.17 565.54L398.79 564.85L396.42 564.12L394.07 563.36L391.72 562.56L389.4 561.73L387.08 560.85L384.78 559.94L382.49 558.99L380.22 558.01L377.97 556.99L375.73 555.94L373.51 554.84L371.3 553.72L369.11 552.55L366.94 551.35L364.79 550.12L362.65 548.85L360.54 547.55L358.44 546.21L356.37 544.83L354.32 543.43L352.28 541.98L350.27 540.51L350.07 540.78L342.28 534.12L341.4 533.36L340.52 532.59L339.65 531.82L338.78 531.04L337.93 530.25L337.07 529.46L336.23 528.67L335.39 527.86L334.56 527.05L333.73 526.24L332.91 525.42L332.09 524.59L331.29 523.76L330.48 522.92L329.69 522.07L328.9 521.22L328.12 520.37L327.34 519.51L326.57 518.64L325.81 517.76L325.05 516.89L324.31 516L323.56 515.11L322.83 514.22L322.1 513.32L321.37 512.41L320.66 511.5L319.95 510.58L319.25 509.66L318.55 508.73L317.86 507.8L317.18 506.86L316.5 505.91L315.83 504.96L315.17 504.01L314.52 503.05L313.87 502.09L313.23 501.12L312.6 500.14L311.97 499.16L308.75 494.07L308.82 493.95L307.81 492.18L306.82 490.4L305.86 488.6L304.92 486.8L304.01 484.98L303.12 483.15L302.25 481.31L301.41 479.46L300.59 477.6L299.8 475.74L299.04 473.86L298.29 471.97L297.58 470.07L296.89 468.17L296.22 466.26L295.58 464.33L294.97 462.4L294.38 460.46L293.81 458.52L293.27 456.56L292.76 454.6L292.27 452.64L291.81 450.66L291.37 448.68L290.96 446.69L290.58 444.7L290.22 442.7L289.89 440.69L289.58 438.68L289.3 436.67L289.05 434.65L288.82 432.62L288.62 430.59L288.45 428.56L288.3 426.52L288.18 424.48L288.09 422.44L288.02 420.39L287.98 418.34L287.97 416.28L287.98 414.23L288.02 412.18L288.09 410.14L288.18 408.1L288.3 406.06L288.45 404.03L288.62 401.99L288.82 399.97L289.05 397.95L289.3 395.93L289.58 393.92L289.88 391.91L290.21 389.91L290.57 387.91L290.95 385.92L291.36 383.94L291.79 381.96L292.25 379.99L292.74 378.02L293.25 376.07L293.79 374.12L294.35 372.17L294.94 370.24L295.55 368.31L296.19 366.39L296.85 364.48L297.54 362.58L298.25 360.68L298.99 358.8L299.75 356.92L300.54 355.06L301.35 353.2L302.19 351.36L303.05 349.52L303.94 347.69L304.85 345.88L305.79 344.08L306.75 342.28L307.73 340.5L308.74 338.73L308.72 338.71L308.7 338.68L308.69 338.66L308.67 338.63L308.65 338.6L308.63 338.58L308.61 338.55L308.59 338.53L308.58 338.5L308.56 338.47L308.54 338.45L308.52 338.42L308.5 338.4L308.48 338.37L308.45 338.32L308.43 338.29L308.41 338.27L308.39 338.24L308.35 338.19L308.28 338.09L308.24 338.04L308.2 337.98L308.17 337.93L308.13 337.88L308.11 337.86L308.09 337.83L308.07 337.8L308.06 337.78L308.04 337.75L308.02 337.73L308 337.7L307.94 337.62L307.88 337.53L307.82 337.45L307.77 337.37L307.71 337.28L307.65 337.2L307.59 337.12L307.53 337.04L307.47 336.95L307.41 336.87L307.35 336.79L307.29 336.7L307.23 336.62L307.17 336.54L307.11 336.46L307.05 336.37L306.99 336.29L306.93 336.21L306.87 336.13L306.81 336.04L306.75 335.96L306.69 335.88L306.63 335.8L306.57 335.71L306.51 335.63L306.45 335.55L306.39 335.47L306.33 335.39L306.27 335.3L306.21 335.22L306.15 335.14L306.09 335.06L306.03 334.98L305.97 334.9L305.91 334.81L305.84 334.73L305.78 334.65L305.72 334.57L305.66 334.49L305.6 334.41L305.57 334.37L305.54 334.32L305.51 334.28L305.48 334.24L305.45 334.2L305.41 334.16L305.38 334.12L305.35 334.08L305.32 334.04L305.29 334L305.26 333.96L305.23 333.92L305.2 333.88L305.17 333.84L305.14 333.8L305.1 333.76L305.07 333.72L305.04 333.68L305.01 333.64L304.98 333.6L304.95 333.56L304.92 333.52L304.89 333.48L304.85 333.44L304.82 333.4L304.79 333.36L304.76 333.32L304.7 333.24L304.64 333.16L304.57 333.08L304.45 332.92L304.39 332.84L304.3 332.72L304.24 332.65L304.18 332.58L304.13 332.51L304.07 332.43L304.01 332.36L303.96 332.29L303.9 332.22L303.84 332.14L303.79 332.07L303.73 332L303.67 331.93L303.62 331.86L303.56 331.78L303.5 331.71L303.45 331.64L303.39 331.57L303.33 331.5L303.27 331.43L303.22 331.35L303.16 331.28L303.1 331.21L303.04 331.14L302.99 331.07L302.93 331L302.87 330.92L302.81 330.85L302.76 330.78L302.7 330.71L302.64 330.64L302.58 330.57L302.52 330.5L302.47 330.42L302.41 330.35L302.35 330.28L302.29 330.21L302.23 330.14L302.18 330.07L302.12 330L302.06 329.93L302.03 329.89L301.99 329.85L301.96 329.81L301.93 329.76L301.86 329.68L301.82 329.64L301.79 329.6L301.72 329.52L301.69 329.48L301.66 329.44L301.62 329.4L301.56 329.32L301.52 329.28L301.49 329.24L301.45 329.2L301.42 329.16L301.39 329.12L301.35 329.07L301.32 329.03L301.29 328.99L301.25 328.95L301.22 328.91L301.18 328.87L301.15 328.83L301.12 328.79L301.08 328.75L301.05 328.71L301.01 328.67L300.98 328.63L300.95 328.59L300.91 328.55L300.88 328.51L300.84 328.47L300.81 328.43L300.78 328.39L300.74 328.35L300.71 328.31L300.65 328.24L300.59 328.17L300.53 328.09L300.47 328.02L300.4 327.95L300.34 327.88L300.28 327.81L300.22 327.74L300.16 327.67L300.1 327.6L300.04 327.53L299.98 327.46L299.92 327.39L299.86 327.32L299.8 327.25L299.73 327.18L299.67 327.11L299.61 327.04L299.55 326.97L299.49 326.9L299.43 326.83L299.37 326.76L299.3 326.69L299.24 326.62L299.18 326.55L299.12 326.48L299.06 326.41L299 326.34L298.93 326.27L298.87 326.2L298.81 326.13L298.75 326.06L298.69 325.99L298.63 325.92L298.56 325.85L298.5 325.78L298.44 325.71L298.38 325.64L298.31 325.57L298.25 325.5L298.22 325.47L298.19 325.43L298.15 325.39L298.12 325.36L298.09 325.32L298.02 325.25L297.99 325.21L297.93 325.14L297.8 324.99L297.73 324.92L297.66 324.85L297.63 324.81L297.6 324.77L297.57 324.74L297.53 324.7L297.5 324.66L297.47 324.63L297.44 324.59L297.4 324.55L297.37 324.52L297.34 324.48L297.3 324.44L297.27 324.41L297.24 324.37L297.21 324.33L297.17 324.3L297.14 324.26L297.11 324.23L297.07 324.19L297.04 324.15L297.01 324.12L296.97 324.08L296.94 324.04L296.86 323.96L296.79 323.88L296.71 323.8L296.64 323.72L296.56 323.64L296.49 323.56L296.41 323.48L296.33 323.39L296.26 323.31L296.18 323.23L296.11 323.15L296.03 323.07L295.95 322.99L295.88 322.91L295.8 322.83L295.72 322.75L295.65 322.67L295.57 322.59L295.49 322.51L295.42 322.43L295.34 322.35L295.26 322.27L295.18 322.19L295.11 322.11L295.03 322.03L294.95 321.95L294.88 321.87L294.8 321.79L294.72 321.71L294.64 321.63L294.57 321.55L294.49 321.47L294.41 321.39L294.33 321.31L294.25 321.23L294.18 321.15L294.1 321.07L294.02 320.99L293.94 320.91L293.87 320.83L293.85 320.82L293.83 320.8L293.81 320.78L293.79 320.76L293.78 320.74L293.74 320.71L293.7 320.67L293.67 320.63L293.63 320.59L293.6 320.56L293.53 320.48L293.49 320.45L293.46 320.41L293.42 320.37L293.4 320.35L293.38 320.34L293.37 320.32L293.35 320.3L293.31 320.26L293.28 320.23L293.26 320.21L293.24 320.19L293.22 320.17L293.2 320.15L293.19 320.13L293.17 320.12L293.15 320.1L291.78 322.26L290.44 324.43L289.14 326.62L287.87 328.83L286.63 331.05L285.43 333.29L284.26 335.54L283.12 337.81L282.02 340.09L280.95 342.38L279.91 344.69L278.91 347.01L277.94 349.34L277 351.69L276.1 354.05L275.24 356.42L274.41 358.8L273.61 361.2L272.85 363.6L272.12 366.02L271.42 368.45L270.76 370.89L270.14 373.34L269.55 375.79L269 378.26L268.48 380.74L267.99 383.23L267.55 385.73L267.13 388.23L266.75 390.74L266.41 393.27L266.11 395.8L265.84 398.33L265.6 400.88L265.4 403.43L265.24 405.99L265.11 408.55L265.02 411.12L264.97 413.7L264.95 416.28L264.97 419.13L265.04 421.98L265.15 424.81L265.3 427.64L265.5 430.46L265.74 433.27L266.03 436.08L266.36 438.87L266.73 441.66L267.15 444.43L267.61 447.2L268.11 449.95L268.66 452.7L269.25 455.43L269.88 458.15L270.55 460.86L271.27 463.55L272.03 466.24L272.83 468.91L273.67 471.56L274.56 474.21L275.49 476.83L276.46 479.45L277.47 482.05L278.52 484.63L279.61 487.2L280.75 489.75L281.93 492.28L283.14 494.8L284.4 497.3L285.7 499.79L287.04 502.25L288.42 504.7L289.84 507.13L291.3 509.53L292.81 511.92L294.35 514.29L295.93 516.64L297.55 518.97L299.21 521.28L299.81 522.09L300.4 522.89L301.01 523.69L301.61 524.49L302.23 525.28L302.84 526.07L303.46 526.86L304.09 527.64L304.72 528.42L305.35 529.2L305.99 529.97L306.63 530.74L307.28 531.5L307.93 532.26L308.58 533.02L309.24 533.77L309.9 534.52L310.57 535.27L311.24 536.01L311.92 536.75L312.59 537.49L313.28 538.22L313.97 538.94L314.66 539.67L315.35 540.39L316.05 541.1L316.75 541.81L317.46 542.52L318.17 543.22L318.89 543.92L319.6 544.62L320.33 545.31L321.05 546L321.78 546.68L322.51 547.36L323.25 548.03L323.99 548.7L324.74 549.37L325.48 550.03L326.24 550.68L328.68 552.77L331.16 554.81L333.67 556.8L336.21 558.74L338.78 560.63L341.38 562.48L344.02 564.27L346.68 566.02L349.37 567.72L352.09 569.37L354.83 570.96L357.61 572.51L360.4 574.01L363.23 575.45L366.07 576.85L368.94 578.19L371.83 579.48L374.75 580.72L377.68 581.91L380.64 583.04L383.62 584.12L386.61 585.15L389.62 586.13L392.65 587.05L395.7 587.92L398.77 588.73L401.85 589.49L404.94 590.2L408.05 590.85L411.17 591.44L414.31 591.98L417.45 592.47L420.61 592.89L423.78 593.27L426.96 593.58L430.14 593.84L433.34 594.04L436.54 594.19L439.75 594.27L442.97 594.3L450.3 594.15L457.55 593.71L464.72 592.98L471.81 591.97L478.8 590.68L485.7 589.12L492.49 587.29L499.18 585.21L505.75 582.87L512.2 580.29L518.52 577.46L524.71 574.4L530.76 571.11L536.67 567.59L542.43 563.86L548.04 559.91L553.48 555.75L558.76 551.4L563.86 546.84L568.79 542.1L573.53 537.18L578.08 532.07L582.44 526.79L586.6 521.35L590.55 515.75L594.28 509.99L597.8 504.08L601.09 498.02L604.15 491.83L606.98 485.51L609.56 479.06L611.9 472.49L613.98 465.81L615.81 459.01L617.37 452.11L618.65 445.12L619.67 438.03L620.4 430.86L620.84 423.61L620.99 416.28L620.84 408.96L620.4 401.7L619.67 394.53L618.65 387.44L617.37 380.45L615.81 373.55L613.98 366.76L611.9 360.07L609.56 353.5L606.98 347.05L604.15 340.73L601.09 334.54L597.8 328.49L594.28 322.58L590.54 316.82L586.6 311.21L582.44 305.77L578.08 300.49L573.53 295.39L568.79 290.46L563.86 285.72L558.76 281.17L553.48 276.81L548.04 272.65L542.43 268.71L536.67 264.97L530.76 261.45L524.71 258.16L518.52 255.1L512.2 252.27L505.75 249.69L499.18 247.35L492.49 245.27L485.7 243.44L478.8 241.88L471.81 240.6L464.72 239.58L457.55 238.85L450.29 238.41L442.97 238.26L440.02 238.29L437.07 238.36ZM182.45 238.85L175.28 239.58L168.19 240.59L161.2 241.88L154.3 243.44L147.51 245.27L140.82 247.35L134.25 249.69L127.8 252.27L121.48 255.1L115.29 258.16L109.24 261.45L103.33 264.97L97.57 268.7L91.96 272.65L86.52 276.81L81.24 281.16L76.14 285.72L71.21 290.46L66.47 295.39L61.92 300.49L57.56 305.77L53.4 311.21L49.45 316.82L45.72 322.58L42.2 328.49L38.91 334.54L35.85 340.73L33.02 347.05L30.44 353.5L28.1 360.07L26.02 366.76L24.19 373.55L22.63 380.45L21.34 387.44L20.33 394.53L19.6 401.7L19.16 408.95L19.01 416.28L19.16 423.61L19.6 430.86L20.33 438.03L21.34 445.12L22.63 452.11L24.19 459.01L26.02 465.8L28.1 472.49L30.44 479.06L33.02 485.51L35.85 491.83L38.91 498.02L42.2 504.07L45.72 509.98L49.45 515.74L53.4 521.35L57.56 526.79L61.92 532.07L66.47 537.17L71.21 542.1L76.14 546.84L81.24 551.4L86.52 555.75L91.96 559.91L97.57 563.86L103.33 567.59L109.24 571.11L115.29 574.4L121.48 577.46L127.8 580.29L134.25 582.87L140.82 585.21L147.51 587.29L154.3 589.12L161.2 590.68L168.19 591.97L175.28 592.98L182.45 593.71L189.7 594.15L197.03 594.3L199.98 594.28L202.92 594.2L205.86 594.08L208.79 593.91L211.72 593.7L214.64 593.43L217.55 593.12L220.45 592.76L223.34 592.35L226.22 591.89L229.1 591.39L231.96 590.84L234.81 590.25L237.65 589.61L240.47 588.92L243.29 588.19L246.09 587.41L248.87 586.59L251.65 585.72L254.4 584.81L257.14 583.85L259.87 582.85L262.58 581.8L265.27 580.71L267.94 579.58L270.59 578.4L273.23 577.18L275.84 575.91L278.44 574.6L281.02 573.25L283.57 571.86L286.1 570.42L288.61 568.95L291.1 567.43L293.56 565.86L296 564.26L298.42 562.62L300.81 560.93L303.17 559.2L305.51 557.43L305.49 557.41L305.47 557.39L305.45 557.37L305.43 557.35L305.41 557.33L305.38 557.31L305.36 557.29L305.34 557.26L305.32 557.24L305.3 557.22L305.28 557.2L305.26 557.18L305.24 557.16L305.22 557.14L305.19 557.12L305.17 557.09L305.13 557.05L305.03 556.95L304.98 556.9L304.94 556.86L304.92 556.84L304.9 556.82L304.88 556.8L304.86 556.77L304.84 556.75L304.82 556.73L304.79 556.71L304.77 556.69L304.75 556.67L304.73 556.65L304.71 556.63L304.69 556.6L304.67 556.58L304.59 556.51L304.51 556.43L304.43 556.35L304.35 556.28L304.28 556.2L304.2 556.12L304.12 556.04L304.04 555.97L303.96 555.89L303.89 555.81L303.81 555.73L303.73 555.66L303.65 555.58L303.57 555.5L303.5 555.43L303.42 555.35L303.34 555.27L303.26 555.19L303.18 555.12L303.11 555.04L303.03 554.96L302.95 554.88L302.87 554.8L302.8 554.73L302.72 554.65L302.64 554.57L302.57 554.49L302.49 554.41L302.41 554.34L302.33 554.26L302.26 554.18L302.18 554.1L302.1 554.02L302.03 553.95L301.95 553.87L301.87 553.79L301.8 553.71L301.72 553.63L301.64 553.55L301.53 553.44L301.5 553.4L301.46 553.37L301.43 553.33L301.39 553.29L301.36 553.26L301.32 553.22L301.29 553.18L301.25 553.15L301.22 553.11L301.18 553.07L301.15 553.04L301.11 553L301.08 552.96L301.04 552.93L301.01 552.89L300.98 552.85L300.94 552.82L300.91 552.78L300.84 552.71L300.77 552.63L300.66 552.52L300.63 552.49L300.6 552.45L300.53 552.38L300.49 552.34L300.46 552.3L300.42 552.26L300.39 552.23L300.35 552.19L300.32 552.15L300.29 552.12L300.25 552.08L300.22 552.05L300.12 551.94L300.06 551.88L299.99 551.81L299.87 551.68L299.8 551.61L299.68 551.48L299.62 551.41L299.55 551.35L299.49 551.28L299.43 551.22L299.37 551.15L299.3 551.08L299.24 551.02L299.18 550.95L299.12 550.89L299.05 550.82L298.99 550.75L298.93 550.69L298.87 550.62L298.8 550.56L298.74 550.49L298.68 550.42L298.62 550.36L298.55 550.29L298.49 550.22L298.43 550.16L298.37 550.09L298.31 550.02L298.24 549.96L298.18 549.89L298.12 549.82L298.06 549.76L298 549.69L297.93 549.62L297.87 549.56L297.81 549.49L297.75 549.42L297.69 549.36L297.65 549.31L297.61 549.27L297.57 549.23L297.53 549.19L297.49 549.14L297.46 549.1L297.42 549.06L297.38 549.02L297.34 548.97L297.3 548.93L297.26 548.89L297.22 548.84L297.19 548.8L297.15 548.76L297.11 548.72L297.07 548.67L297.03 548.63L297 548.59L296.96 548.54L296.92 548.5L296.88 548.46L296.84 548.42L296.8 548.37L296.77 548.33L296.61 548.16L296.58 548.11L296.54 548.07L296.5 548.03L296.46 547.98L296.42 547.94L296.38 547.9L296.35 547.86L296.31 547.81L296.27 547.77L296.23 547.73L296.19 547.68L296.16 547.64L296.1 547.58L296.04 547.52L295.93 547.39L295.88 547.33L295.71 547.14L295.65 547.08L295.54 546.95L295.48 546.89L295.43 546.83L295.37 546.77L295.32 546.7L295.26 546.64L295.2 546.58L295.15 546.51L295.09 546.45L295.04 546.39L294.98 546.33L294.92 546.26L294.87 546.2L294.81 546.14L294.76 546.08L294.7 546.01L294.65 545.95L294.59 545.89L294.54 545.82L294.48 545.76L294.42 545.7L294.37 545.63L294.31 545.57L294.26 545.51L294.2 545.45L294.15 545.38L294.09 545.32L294.04 545.26L293.98 545.19L293.93 545.13L293.89 545.08L293.85 545.04L293.81 544.99L293.77 544.94L293.73 544.9L293.69 544.85L293.65 544.8L293.61 544.76L293.57 544.71L293.53 544.66L293.49 544.61L293.45 544.57L293.41 544.52L293.37 544.47L293.33 544.43L293.29 544.38L293.25 544.33L293.21 544.29L293.17 544.24L293.13 544.19L293.09 544.14L293.01 544.05L292.93 543.96L292.82 543.81L292.74 543.72L292.66 543.63L292.62 543.58L292.58 543.53L292.54 543.49L292.5 543.44L292.46 543.39L292.42 543.34L292.38 543.3L292.34 543.25L292.29 543.19L292.24 543.13L292.19 543.07L292.14 543.01L292.08 542.94L291.98 542.82L291.77 542.58L291.72 542.52L291.67 542.45L291.62 542.39L291.57 542.33L291.52 542.27L291.47 542.21L291.41 542.15L291.36 542.09L291.31 542.03L291.26 541.96L291.21 541.9L291.16 541.84L291.11 541.78L291.05 541.72L291 541.66L290.95 541.6L290.9 541.54L290.85 541.47L290.8 541.41L290.75 541.35L290.7 541.29L290.65 541.23L290.59 541.17L290.54 541.1L290.49 541.04L290.44 540.98L290.39 540.92L290.34 540.86L290.29 540.79L290.28 540.78L290.27 540.77L290.26 540.76L290.25 540.74L290.23 540.72L290.21 540.7L290.18 540.66L290.17 540.65L290.16 540.64L290.14 540.62L290.1 540.57L290.07 540.53L290.04 540.5L290.02 540.47L290 540.45L289.99 540.44L289.98 540.43L289.97 540.42L289.96 540.4L289.95 540.39L289.94 540.38L289.93 540.36L287.91 541.84L285.88 543.29L283.82 544.71L281.74 546.09L279.64 547.43L277.52 548.74L275.39 550.02L273.23 551.26L271.06 552.46L268.86 553.63L266.65 554.76L264.43 555.86L262.18 556.92L259.92 557.95L257.65 558.93L255.36 559.89L253.05 560.8L250.73 561.68L248.4 562.52L246.05 563.32L243.69 564.09L241.32 564.82L238.93 565.51L236.54 566.16L234.13 566.77L231.72 567.35L229.29 567.88L226.85 568.38L224.41 568.84L221.95 569.26L219.49 569.64L217.02 569.99L214.54 570.29L212.06 570.55L209.57 570.77L207.07 570.96L204.57 571.1L202.06 571.2L199.55 571.26L197.03 571.28L190.65 571.15L184.34 570.77L178.09 570.13L171.92 569.25L165.83 568.13L159.83 566.77L153.91 565.18L148.09 563.37L142.37 561.33L136.76 559.08L131.25 556.62L125.86 553.95L120.59 551.09L115.44 548.03L110.43 544.77L105.55 541.34L100.81 537.72L96.21 533.92L91.77 529.96L87.48 525.83L83.35 521.54L79.39 517.1L75.59 512.5L71.98 507.76L68.54 502.88L65.29 497.87L62.22 492.72L59.36 487.45L56.69 482.06L54.23 476.56L51.98 470.94L49.95 465.22L48.13 459.4L46.54 453.48L45.18 447.48L44.06 441.39L43.18 435.22L42.54 428.97L42.16 422.66L42.03 416.28L42.16 409.9L42.54 403.59L43.18 397.34L44.06 391.17L45.18 385.08L46.54 379.08L48.13 373.16L49.95 367.34L51.98 361.62L54.23 356L56.69 350.5L59.36 345.11L62.22 339.84L65.29 334.69L68.54 329.68L71.98 324.8L75.59 320.06L79.39 315.46L83.35 311.02L87.48 306.73L91.77 302.6L96.21 298.64L100.81 294.84L105.55 291.22L110.43 287.79L115.44 284.53L120.59 281.47L125.86 278.6L131.25 275.94L136.76 273.48L142.37 271.23L148.09 269.19L153.91 267.38L159.83 265.79L165.83 264.43L171.92 263.31L178.09 262.43L184.34 261.79L190.65 261.41L197.03 261.28L199.54 261.3L202.05 261.36L204.55 261.46L207.04 261.6L209.53 261.78L212.02 262L214.5 262.27L216.97 262.57L219.43 262.91L221.89 263.29L224.34 263.7L226.78 264.16L229.21 264.66L231.63 265.19L234.04 265.76L236.44 266.38L238.83 267.02L241.21 267.71L243.58 268.44L245.93 269.2L248.27 270L250.6 270.83L252.92 271.71L255.22 272.62L257.5 273.57L259.78 274.55L262.03 275.57L264.27 276.62L266.49 277.72L268.7 278.84L270.89 280.01L273.06 281.21L275.21 282.44L277.35 283.71L279.46 285.01L281.55 286.35L283.63 287.73L285.68 289.13L287.72 290.58L289.73 292.05L289.93 291.78L297.72 298.44L297.94 298.63L298.16 298.82L298.38 299.01L298.6 299.2L298.82 299.39L299.04 299.59L299.26 299.78L299.48 299.97L299.7 300.16L299.92 300.35L300.13 300.55L300.35 300.74L300.57 300.94L300.78 301.13L301 301.33L301.21 301.52L301.43 301.72L301.64 301.91L301.86 302.11L302.07 302.31L302.29 302.5L302.5 302.7L302.71 302.9L302.92 303.1L303.14 303.3L303.35 303.5L303.56 303.69L303.77 303.89L303.98 304.09L304.19 304.3L304.4 304.5L304.61 304.7L304.82 304.9L305.03 305.1L305.24 305.3L305.44 305.51L305.65 305.71L305.86 305.91L306.06 306.12L306.27 306.32L306.89 306.94L307.5 307.56L308.11 308.18L308.71 308.8L309.31 309.43L309.91 310.06L310.51 310.7L311.1 311.34L311.69 311.98L312.27 312.62L312.85 313.27L313.43 313.92L314 314.58L314.57 315.23L315.13 315.9L315.69 316.56L316.25 317.23L316.81 317.9L317.36 318.57L317.9 319.25L318.45 319.92L318.98 320.61L319.52 321.29L320.05 321.98L320.58 322.67L321.1 323.37L321.62 324.06L322.14 324.77L322.65 325.47L323.16 326.18L323.66 326.88L324.16 327.6L324.66 328.31L325.15 329.03L325.64 329.75L326.13 330.48L326.61 331.2L327.09 331.93L327.56 332.66L328.03 333.4L331.25 338.49L331.18 338.61L332.19 340.38L333.18 342.17L334.14 343.96L335.08 345.77L335.99 347.58L336.88 349.41L337.75 351.25L338.59 353.1L339.41 354.96L340.2 356.83L340.96 358.7L341.71 360.59L342.42 362.49L343.11 364.39L343.78 366.31L344.42 368.23L345.03 370.16L345.62 372.1L346.19 374.04L346.73 376L347.24 377.96L347.73 379.93L348.19 381.9L348.63 383.88L349.04 385.87L349.42 387.86L349.78 389.86L350.11 391.87L350.42 393.88L350.7 395.89L350.95 397.91L351.18 399.94L351.38 401.97L351.55 404L351.7 406.04L351.82 408.08L351.91 410.13L351.98 412.18L352.02 414.23L352.03 416.28L352.02 418.33L351.98 420.38L351.91 422.42L351.82 424.46L351.7 426.5L351.55 428.54L351.38 430.57L351.18 432.59L350.95 434.61L350.7 436.63L350.42 438.64L350.12 440.65L349.79 442.65L349.43 444.65L349.05 446.64L348.64 448.62L348.21 450.6L347.75 452.57L347.26 454.54L346.75 456.5L346.21 458.45L345.65 460.39L345.06 462.32L344.45 464.25L343.81 466.17L343.15 468.08L342.46 469.98L341.75 471.88L341.01 473.76L340.25 475.64L339.46 477.5L338.65 479.36L337.81 481.21L336.95 483.04L336.06 484.87L335.15 486.68L334.21 488.48L333.25 490.28L332.27 492.06L331.26 493.83L331.28 493.85L331.3 493.88L331.31 493.91L331.33 493.93L331.35 493.96L331.37 493.98L331.39 494.01L331.41 494.03L331.42 494.06L331.44 494.09L331.46 494.11L331.48 494.14L331.5 494.16L331.52 494.19L331.53 494.22L331.55 494.24L331.57 494.27L331.61 494.32L331.66 494.39L331.74 494.5L331.76 494.52L331.78 494.55L331.81 494.6L331.85 494.65L331.87 494.68L331.89 494.7L331.9 494.73L331.92 494.75L331.94 494.78L331.96 494.8L331.98 494.83L332 494.86L332.06 494.94L332.11 495.02L332.17 495.11L332.23 495.19L332.29 495.27L332.35 495.36L332.41 495.44L332.47 495.52L332.53 495.6L332.59 495.69L332.65 495.77L332.71 495.85L332.77 495.94L332.83 496.02L332.89 496.1L332.94 496.18L333 496.27L333.06 496.35L333.12 496.43L333.18 496.51L333.24 496.6L333.3 496.68L333.36 496.76L333.42 496.84L333.48 496.93L333.55 497.01L333.61 497.09L333.67 497.17L333.73 497.25L333.79 497.34L333.85 497.42L333.91 497.5L333.97 497.58L334.03 497.66L334.09 497.74L334.15 497.83L334.21 497.91L334.27 497.99L334.34 498.07L334.4 498.15L334.43 498.19L334.46 498.23L334.49 498.27L334.52 498.31L334.55 498.36L334.58 498.4L334.61 498.44L334.65 498.48L334.68 498.52L334.71 498.56L334.74 498.6L334.77 498.64L334.8 498.68L334.83 498.72L334.87 498.76L334.9 498.8L334.93 498.84L334.96 498.88L334.99 498.93L335.02 498.97L335.05 499.01L335.09 499.05L335.12 499.09L335.15 499.13L335.18 499.17L335.21 499.21L335.27 499.29L335.31 499.33L335.34 499.37L335.43 499.49L335.56 499.65L335.62 499.74L335.71 499.85L335.77 499.92L335.82 499.99L335.88 500.06L335.93 500.14L335.99 500.21L336.05 500.28L336.1 500.35L336.16 500.42L336.22 500.49L336.27 500.57L336.33 500.64L336.39 500.71L336.44 500.78L336.5 500.85L336.56 500.92L336.61 500.99L336.67 501.07L336.73 501.14L336.78 501.21L336.84 501.28L336.9 501.35L336.95 501.42L337.01 501.49L337.07 501.56L337.13 501.64L337.18 501.71L337.24 501.78L337.3 501.85L337.36 501.92L337.41 501.99L337.47 502.06L337.53 502.13L337.59 502.2L337.64 502.27L337.7 502.34L337.76 502.41L337.82 502.49L337.87 502.56L337.93 502.63L337.97 502.67L338 502.71L338.03 502.75L338.07 502.79L338.1 502.83L338.14 502.87L338.17 502.91L338.2 502.96L338.24 503L338.27 503.04L338.31 503.08L338.34 503.12L338.37 503.16L338.41 503.2L338.44 503.24L338.48 503.28L338.51 503.32L338.54 503.36L338.58 503.41L338.61 503.45L338.65 503.49L338.68 503.53L338.71 503.57L338.75 503.61L338.78 503.65L338.82 503.69L338.85 503.73L338.89 503.77L338.92 503.81L338.95 503.85L338.99 503.9L339.02 503.94L339.06 503.98L339.09 504.02L339.13 504.06L339.16 504.1L339.19 504.14L339.23 504.18L339.26 504.22L339.36 504.33L339.42 504.4L339.48 504.47L339.54 504.54L339.6 504.61L339.66 504.68L339.72 504.75L339.78 504.83L339.84 504.9L339.9 504.97L339.96 505.04L340.02 505.11L340.08 505.18L340.14 505.25L340.2 505.32L340.27 505.39L340.33 505.46L340.39 505.53L340.45 505.6L340.51 505.67L340.57 505.74L340.63 505.8L340.69 505.87L340.75 505.94L340.82 506.01L340.88 506.08L340.94 506.15L341 506.22L341.06 506.29L341.12 506.36L341.18 506.43L341.25 506.5L341.31 506.57L341.37 506.64L341.43 506.71L341.49 506.78L341.56 506.85L341.62 506.91L341.68 506.98L341.74 507.05L341.77 507.09L341.81 507.13L341.87 507.2L341.91 507.24L341.97 507.31L342.17 507.53L342.2 507.57L342.27 507.64L342.3 507.68L342.33 507.71L342.4 507.79L342.43 507.82L342.46 507.86L342.5 507.9L342.53 507.93L342.56 507.97L342.59 508.01L342.63 508.04L342.66 508.08L342.69 508.12L342.73 508.15L342.76 508.19L342.79 508.23L342.83 508.26L342.86 508.3L342.89 508.34L342.93 508.37L342.96 508.41L342.99 508.45L343.03 508.48L343.06 508.52L343.14 508.6L343.21 508.68L343.29 508.76L343.36 508.84L343.44 508.93L343.51 509.01L343.59 509.09L343.67 509.17L343.74 509.25L343.82 509.33L343.9 509.41L343.97 509.49L344.05 509.57L344.13 509.65L344.2 509.74L344.28 509.82L344.36 509.9L344.43 509.98L344.51 510.06L344.59 510.14L344.66 510.22L344.74 510.3L344.82 510.38L344.9 510.46L344.97 510.54L345.05 510.62L345.13 510.7L345.21 510.78L345.28 510.86L345.36 510.94L345.44 511.02L345.52 511.1L345.6 511.18L345.67 511.26L345.75 511.34L345.83 511.42L345.91 511.5L345.98 511.58L346.06 511.66L346.14 511.73L346.16 511.75L346.18 511.77L346.19 511.79L346.21 511.81L346.23 511.83L346.25 511.84L346.27 511.86L346.28 511.88L346.3 511.9L346.34 511.94L346.37 511.97L346.41 512.01L346.49 512.1L346.55 512.15L346.56 512.17L346.58 512.19L346.6 512.21L346.62 512.23L346.65 512.26L346.69 512.3L346.71 512.32L346.72 512.34L346.74 512.36L346.76 512.37L346.78 512.39L346.79 512.41L346.81 512.43L346.83 512.45L346.85 512.46L348.22 510.3L349.56 508.13L350.86 505.94L352.13 503.73L353.37 501.51L354.57 499.27L355.74 497.02L356.88 494.76L357.98 492.48L359.05 490.18L360.09 487.87L361.09 485.55L362.06 483.22L363 480.87L363.9 478.51L364.76 476.14L365.59 473.76L366.39 471.36L367.15 468.96L367.88 466.54L368.58 464.11L369.24 461.67L369.86 459.23L370.45 456.77L371 454.3L371.52 451.82L372.01 449.33L372.45 446.84L372.87 444.33L373.25 441.82L373.59 439.3L373.89 436.77L374.16 434.23L374.4 431.68L374.6 429.13L374.76 426.58L374.89 424.01L374.98 421.44L375.03 418.86L375.05 416.28L375.03 413.43L374.96 410.59L374.85 407.75L374.7 404.92L374.5 402.1L374.26 399.29L373.97 396.48L373.64 393.69L373.27 390.9L372.85 388.13L372.39 385.36L371.89 382.61L371.34 379.86L370.75 377.13L370.12 374.41L369.45 371.7L368.73 369.01L367.97 366.32L367.17 363.65L366.33 361L365.44 358.35L364.51 355.73L363.54 353.11L362.53 350.51L361.48 347.93L360.39 345.36L359.25 342.81L358.07 340.28L356.86 337.76L355.6 335.26L354.3 332.77L352.96 330.31L351.58 327.86L350.16 325.43L348.7 323.03L347.19 320.64L345.65 318.27L344.07 315.92L342.45 313.59L340.79 311.28L340.19 310.47L339.6 309.67L338.99 308.87L338.39 308.07L337.77 307.28L337.16 306.49L336.54 305.7L335.91 304.92L335.28 304.14L334.65 303.36L334.01 302.59L333.37 301.82L332.72 301.06L332.07 300.3L331.42 299.54L330.76 298.79L330.1 298.04L329.43 297.29L328.76 296.55L328.08 295.81L327.41 295.07L326.72 294.34L326.04 293.62L325.34 292.89L324.65 292.17L323.95 291.46L323.25 290.75L322.54 290.04L321.83 289.34L321.12 288.64L320.4 287.94L319.67 287.25L318.95 286.56L318.22 285.88L317.49 285.2L316.75 284.53L316.01 283.86L315.26 283.19L314.52 282.53L313.77 281.88L311.32 279.79L308.84 277.75L306.33 275.76L303.79 273.82L301.22 271.93L298.62 270.08L295.98 268.29L293.32 266.54L290.63 264.84L287.91 263.19L285.17 261.6L282.39 260.05L279.6 258.55L276.77 257.11L273.93 255.71L271.06 254.37L268.17 253.08L265.25 251.84L262.32 250.65L259.36 249.52L256.38 248.44L253.39 247.41L250.38 246.43L247.35 245.51L244.3 244.64L241.23 243.83L238.15 243.07L235.06 242.36L231.95 241.71L228.83 241.12L225.69 240.58L222.55 240.09L219.39 239.67L216.22 239.29L213.04 238.98L209.86 238.72L206.66 238.52L203.46 238.37L200.25 238.29L197.03 238.26L189.7 238.41L182.45 238.85ZM185.89 280.74L180.42 281.3L175 282.07L169.66 283.06L164.39 284.25L159.2 285.64L154.09 287.23L149.07 289.02L144.15 290.99L139.32 293.15L134.59 295.49L129.96 298L125.45 300.69L121.05 303.55L116.77 306.56L112.61 309.74L108.58 313.06L104.68 316.54L100.92 320.16L97.29 323.93L93.81 327.83L90.49 331.86L87.31 336.02L84.3 340.3L81.44 344.7L78.76 349.21L76.24 353.84L73.9 358.57L71.74 363.4L69.77 368.32L67.98 373.34L66.39 378.45L65 383.64L63.81 388.91L62.82 394.25L62.05 399.67L61.49 405.14L61.15 410.68L61.04 416.28L61.15 421.88L61.49 427.42L62.05 432.9L62.82 438.31L63.81 443.65L65 448.92L66.39 454.11L67.98 459.22L69.77 464.24L71.74 469.16L73.9 473.99L76.24 478.72L78.76 483.35L81.44 487.86L84.3 492.26L87.31 496.54L90.49 500.7L93.81 504.73L97.29 508.63L100.92 512.4L104.68 516.02L108.58 519.5L112.61 522.83L116.77 526L121.05 529.02L125.45 531.87L129.96 534.56L134.59 537.07L139.32 539.41L144.15 541.57L149.07 543.54L154.09 545.33L159.2 546.92L164.39 548.31L169.66 549.5L175 550.49L180.42 551.26L185.89 551.82L191.43 552.16L197.03 552.27L199.24 552.25L201.45 552.2L203.65 552.11L205.85 551.98L208.05 551.82L210.24 551.63L212.42 551.4L214.6 551.13L216.77 550.83L218.94 550.49L221.09 550.12L223.24 549.71L225.38 549.27L227.52 548.8L229.64 548.29L231.75 547.75L233.86 547.17L235.95 546.57L238.04 545.92L240.11 545.25L242.17 544.54L244.22 543.8L246.26 543.02L248.29 542.22L250.3 541.38L252.3 540.51L254.28 539.6L256.26 538.67L258.21 537.7L260.15 536.7L262.08 535.67L263.99 534.61L265.88 533.52L267.76 532.39L269.62 531.24L271.46 530.05L273.29 528.84L275.1 527.59L276.88 526.32L278.65 525.01L277.07 522.58L275.52 520.13L274 517.66L272.53 515.18L271.1 512.67L269.7 510.15L268.34 507.61L267.02 505.06L265.74 502.49L264.5 499.9L263.3 497.29L262.14 494.67L261.01 492.04L259.93 489.39L258.89 486.72L257.88 484.04L256.92 481.35L255.99 478.64L255.11 475.92L254.26 473.19L253.46 470.44L252.69 467.69L251.97 464.91L251.28 462.13L250.64 459.34L250.04 456.53L249.48 453.72L248.96 450.89L248.48 448.06L248.04 445.21L247.64 442.35L247.28 439.49L246.97 436.62L246.7 433.73L246.47 430.84L246.28 427.94L246.13 425.04L246.02 422.13L245.96 419.21L245.94 416.28L245.96 413.35L246.02 410.43L246.13 407.52L246.28 404.62L246.47 401.72L246.7 398.83L246.97 395.94L247.28 393.07L247.64 390.21L248.04 387.35L248.48 384.5L248.96 381.67L249.48 378.84L250.04 376.03L250.64 373.22L251.28 370.43L251.97 367.65L252.69 364.87L253.46 362.12L254.26 359.37L255.11 356.64L255.99 353.92L256.92 351.21L257.88 348.52L258.89 345.84L259.93 343.17L261.01 340.52L262.14 337.89L263.3 335.27L264.5 332.66L265.74 330.07L267.02 327.5L268.34 324.95L269.7 322.41L271.1 319.89L272.53 317.38L274 314.9L275.52 312.43L277.07 309.98L278.65 307.55L276.88 306.24L275.1 304.97L273.29 303.72L271.46 302.51L269.62 301.32L267.76 300.17L265.88 299.04L263.99 297.95L262.08 296.89L260.15 295.86L258.21 294.86L256.26 293.89L254.28 292.96L252.3 292.05L250.3 291.18L248.29 290.34L246.26 289.54L244.22 288.76L242.17 288.02L240.11 287.31L238.04 286.64L235.95 285.99L233.86 285.39L231.76 284.81L229.64 284.27L227.52 283.76L225.38 283.29L223.24 282.85L221.09 282.44L218.94 282.07L216.77 281.73L214.6 281.43L212.42 281.16L210.24 280.93L208.05 280.74L205.85 280.58L203.65 280.45L201.45 280.36L199.24 280.31L197.03 280.29L191.43 280.4L185.89 280.74ZM438.55 280.36L436.35 280.45L434.15 280.58L431.95 280.74L429.76 280.93L427.58 281.16L425.4 281.43L423.23 281.73L421.06 282.07L418.91 282.44L416.76 282.85L414.62 283.29L412.48 283.76L410.36 284.27L408.24 284.81L406.14 285.39L404.05 285.99L401.96 286.64L399.89 287.31L397.83 288.02L395.78 288.76L393.74 289.54L391.71 290.34L389.7 291.18L387.7 292.05L385.72 292.96L383.74 293.89L381.79 294.86L379.85 295.86L377.92 296.89L376.01 297.95L374.12 299.04L372.24 300.17L370.38 301.32L368.54 302.51L366.71 303.72L364.9 304.97L363.12 306.24L361.35 307.55L362.93 309.98L364.48 312.43L366 314.9L367.47 317.38L368.9 319.89L370.3 322.41L371.66 324.95L372.98 327.5L374.26 330.07L375.5 332.66L376.7 335.27L377.86 337.89L378.99 340.52L380.07 343.17L381.11 345.84L382.12 348.51L383.08 351.21L384.01 353.92L384.89 356.64L385.74 359.37L386.54 362.12L387.31 364.87L388.03 367.64L388.72 370.43L389.36 373.22L389.96 376.03L390.52 378.84L391.04 381.67L391.52 384.5L391.96 387.35L392.36 390.2L392.72 393.07L393.03 395.94L393.3 398.82L393.53 401.72L393.72 404.61L393.87 407.52L393.98 410.43L394.04 413.35L394.06 416.28L394.04 419.2L393.98 422.12L393.87 425.04L393.72 427.94L393.53 430.84L393.3 433.73L393.03 436.61L392.72 439.49L392.36 442.35L391.96 445.21L391.52 448.05L391.04 450.89L390.52 453.72L389.96 456.53L389.36 459.34L388.72 462.13L388.03 464.91L387.31 467.68L386.54 470.44L385.74 473.19L384.89 475.92L384.01 478.64L383.08 481.35L382.12 484.04L381.11 486.72L380.07 489.39L378.99 492.04L377.86 494.67L376.7 497.29L375.5 499.9L374.26 502.48L372.98 505.06L371.66 507.61L370.3 510.15L368.9 512.67L367.47 515.18L366 517.66L364.48 520.13L362.93 522.58L361.35 525.01L363.12 526.31L364.9 527.59L366.71 528.84L368.54 530.05L370.38 531.24L372.24 532.39L374.12 533.52L376.01 534.61L377.92 535.67L379.85 536.7L381.79 537.7L383.74 538.67L385.72 539.6L387.7 540.5L389.7 541.38L391.71 542.22L393.74 543.02L395.78 543.8L397.83 544.54L399.89 545.25L401.96 545.92L404.05 546.56L406.14 547.17L408.25 547.75L410.36 548.29L412.48 548.8L414.62 549.27L416.76 549.71L418.91 550.12L421.06 550.49L423.23 550.82L425.4 551.13L427.58 551.39L429.76 551.62L431.95 551.82L434.15 551.98L436.35 552.11L438.55 552.2L440.76 552.25L442.97 552.27L448.57 552.16L454.11 551.82L459.58 551.26L465 550.49L470.34 549.5L475.61 548.31L480.8 546.92L485.91 545.33L490.93 543.54L495.85 541.57L500.68 539.41L505.41 537.07L510.04 534.55L514.55 531.87L518.95 529.01L523.23 526L527.39 522.82L531.42 519.5L535.32 516.02L539.08 512.39L542.71 508.63L546.19 504.73L549.51 500.7L552.69 496.54L555.7 492.26L558.56 487.86L561.24 483.35L563.76 478.72L566.1 473.99L568.26 469.16L570.23 464.24L572.02 459.22L573.61 454.11L575 448.92L576.19 443.65L577.18 438.31L577.95 432.9L578.51 427.42L578.85 421.88L578.96 416.28L578.85 410.68L578.51 405.14L577.95 399.66L577.18 394.25L576.19 388.91L575 383.64L573.61 378.45L572.02 373.34L570.23 368.32L568.26 363.4L566.1 358.57L563.76 353.84L561.24 349.21L558.56 344.7L555.7 340.3L552.69 336.02L549.51 331.86L546.19 327.83L542.71 323.93L539.08 320.16L535.32 316.54L531.42 313.06L527.39 309.74L523.23 306.56L518.95 303.54L514.55 300.69L510.04 298L505.41 295.49L500.68 293.15L495.85 290.99L490.93 289.02L485.91 287.23L480.8 285.64L475.61 284.25L470.34 283.06L465 282.07L459.58 281.3L454.11 280.74L448.57 280.4L442.97 280.29L440.76 280.31L438.55 280.36ZM318.75 360.92L318.15 362.29L317.56 363.67L316.99 365.05L316.43 366.44L315.89 367.83L315.37 369.24L314.86 370.64L314.36 372.05L313.88 373.47L313.42 374.89L312.97 376.32L312.54 377.75L312.13 379.18L311.73 380.62L311.34 382.07L310.97 383.52L310.62 384.97L310.29 386.43L309.97 387.89L309.66 389.36L309.37 390.83L309.1 392.3L308.85 393.78L308.61 395.26L308.38 396.74L308.18 398.23L307.99 399.72L307.81 401.21L307.65 402.71L307.51 404.21L307.39 405.71L307.28 407.21L307.19 408.72L307.11 410.23L307.05 411.74L307.01 413.25L306.99 414.76L306.98 416.28L306.99 417.8L307.01 419.31L307.05 420.82L307.11 422.33L307.19 423.84L307.28 425.35L307.39 426.85L307.51 428.35L307.65 429.85L307.81 431.35L307.99 432.84L308.18 434.33L308.38 435.82L308.61 437.3L308.85 438.78L309.1 440.26L309.37 441.73L309.66 443.2L309.97 444.67L310.29 446.13L310.62 447.59L310.97 449.04L311.34 450.49L311.73 451.94L312.13 453.38L312.54 454.81L312.97 456.24L313.42 457.67L313.88 459.09L314.36 460.51L314.86 461.92L315.37 463.32L315.89 464.72L316.43 466.12L316.99 467.51L317.56 468.89L318.15 470.27L318.75 471.64L319.37 473L320 474.36L320.63 473L321.25 471.64L321.85 470.27L322.44 468.89L323.01 467.51L323.57 466.12L324.11 464.72L324.63 463.32L325.14 461.92L325.64 460.51L326.12 459.09L326.58 457.67L327.03 456.24L327.46 454.81L327.87 453.38L328.27 451.94L328.66 450.49L329.03 449.04L329.38 447.59L329.71 446.13L330.03 444.67L330.34 443.2L330.63 441.73L330.9 440.26L331.15 438.78L331.39 437.3L331.62 435.82L331.82 434.33L332.01 432.84L332.19 431.35L332.35 429.85L332.49 428.35L332.61 426.85L332.72 425.35L332.81 423.84L332.89 422.33L332.95 420.82L332.99 419.31L333.01 417.8L333.02 416.28L333.01 414.76L332.99 413.25L332.95 411.74L332.89 410.23L332.81 408.72L332.72 407.21L332.61 405.71L332.49 404.21L332.35 402.71L332.19 401.21L332.01 399.72L331.82 398.23L331.62 396.74L331.39 395.26L331.15 393.78L330.9 392.3L330.63 390.83L330.34 389.36L330.03 387.89L329.71 386.43L329.38 384.97L329.03 383.52L328.66 382.07L328.27 380.62L327.87 379.18L327.46 377.75L327.03 376.32L326.58 374.89L326.12 373.47L325.64 372.05L325.14 370.64L324.63 369.24L324.11 367.84L323.57 366.44L323.01 365.05L322.44 363.67L321.85 362.29L321.25 360.92L320.63 359.56L320 358.2L319.37 359.56L318.75 360.92ZM409.05 181.39L442.97 215.31L476.89 181.39L466.93 169.79L419.01 169.79L409.05 181.39Z" id="arf9Oc2KR"></path><path d="M329.51 26.69C329.51 26.69 329.51 26.69 329.51 26.69C329.51 62.2 329.51 81.92 329.51 85.87C329.51 85.87 329.51 85.87 329.51 85.87C318.1 85.87 311.76 85.87 310.5 85.87C310.5 85.87 310.5 85.87 310.5 85.87C310.5 50.36 310.5 30.63 310.5 26.69C310.5 26.69 310.5 26.69 310.5 26.69C321.9 26.69 328.24 26.69 329.51 26.69Z" id="a7AwZcn7p"></path><path d="M402.11 43.94C402.11 43.94 402.11 43.94 402.11 43.94C412.46 48.72 418.21 51.38 419.36 51.91C419.36 51.91 419.36 51.91 419.36 51.91C404.46 84.14 396.18 102.04 394.52 105.63C394.52 105.63 394.52 105.63 394.52 105.63C384.17 100.84 378.42 98.18 377.27 97.65C377.27 97.65 377.27 97.65 377.27 97.65C392.17 65.42 400.45 47.52 402.11 43.94Z" id="aPbNLjZ3X"></path><path d="M237.88 43.94C237.88 43.94 237.88 43.94 237.88 43.94C252.78 76.17 261.06 94.07 262.72 97.65C262.72 97.65 262.72 97.65 262.72 97.65C252.37 102.44 246.62 105.1 245.47 105.63C245.47 105.63 245.47 105.63 245.47 105.63C230.56 73.4 222.28 55.5 220.63 51.92C220.63 51.92 220.63 51.92 220.63 51.92C230.98 47.13 236.73 44.47 237.88 43.94Z" id="icDYm1U55"></path></defs><g><g><g><use xlink:href="#arf9Oc2KR" opacity="1" fill="#000000" fill-opacity="1"></use><g><use xlink:href="#arf9Oc2KR" opacity="1" fill-opacity="0" stroke="#000000" stroke-width="1" stroke-opacity="0"></use></g></g><g><use xlink:href="#a7AwZcn7p" opacity="1" fill="#000000" fill-opacity="1"></use><g><use xlink:href="#a7AwZcn7p" opacity="1" fill-opacity="0" stroke="#000000" stroke-width="1" stroke-opacity="0"></use></g></g><g><use xlink:href="#aPbNLjZ3X" opacity="1" fill="#000000" fill-opacity="1"></use><g><use xlink:href="#aPbNLjZ3X" opacity="1" fill-opacity="0" stroke="#000000" stroke-width="1" stroke-opacity="0"></use></g></g><g><use xlink:href="#icDYm1U55" opacity="1" fill="#000000" fill-opacity="1"></use><g><use xlink:href="#icDYm1U55" opacity="1" fill-opacity="0" stroke="#000000" stroke-width="1" stroke-opacity="0"></use></g></g></g></g></svg>